<svg width="24" height="24" viewBox="0 0 24 24" fill="none" xmlns="http://www.w3.org/2000/svg">
<path d="M0.75 3.24375C0.75 1.86625 1.86625 0.75 3.24375 0.75H20.7562C22.1337 0.75 23.25 1.86625 23.25 3.24375V20.7562C23.25 21.4176 22.9873 22.0519 22.5196 22.5196C22.0519 22.9873 21.4176 23.25 20.7562 23.25H3.24375C2.58237 23.25 1.94807 22.9873 1.4804 22.5196C1.01273 22.0519 0.75 21.4176 0.75 20.7562V3.24375ZM4.94625 19.5H19.3088C18.5033 18.3418 17.4294 17.3957 16.1789 16.7427C14.9283 16.0897 13.5383 15.7491 12.1275 15.75C10.7167 15.7491 9.32668 16.0897 8.07614 16.7427C6.82559 17.3957 5.75172 18.3418 4.94625 19.5V19.5ZM12 13.25C12.5745 13.25 13.1434 13.1368 13.6742 12.917C14.205 12.6971 14.6873 12.3748 15.0936 11.9686C15.4998 11.5623 15.8221 11.08 16.042 10.5492C16.2618 10.0184 16.375 9.44953 16.375 8.875C16.375 8.30047 16.2618 7.73156 16.042 7.20076C15.8221 6.66996 15.4998 6.18766 15.0936 5.78141C14.6873 5.37515 14.205 5.05289 13.6742 4.83303C13.1434 4.61316 12.5745 4.5 12 4.5C10.8397 4.5 9.72688 4.96094 8.90641 5.78141C8.08594 6.60188 7.625 7.71468 7.625 8.875C7.625 10.0353 8.08594 11.1481 8.90641 11.9686C9.72688 12.7891 10.8397 13.25 12 13.25V13.25Z" fill="white"/>
</svg>
