<svg width="30" height="30" viewBox="0 0 30 30" fill="none" xmlns="http://www.w3.org/2000/svg">
<g clip-path="url(#clip0_43_80)">
<path d="M15 1.25C15.8208 1.25 16.6335 1.41166 17.3918 1.72575C18.1501 2.03984 18.8391 2.50022 19.4194 3.08058C19.9998 3.66095 20.4602 4.34994 20.7742 5.10823C21.0883 5.86651 21.25 6.67924 21.25 7.5V10H25C25.3315 10 25.6495 10.1317 25.8839 10.3661C26.1183 10.6005 26.25 10.9185 26.25 11.25V26.25C26.25 26.5815 26.1183 26.8995 25.8839 27.1339C25.6495 27.3683 25.3315 27.5 25 27.5H5C4.66848 27.5 4.35054 27.3683 4.11612 27.1339C3.8817 26.8995 3.75 26.5815 3.75 26.25V11.25C3.75 10.9185 3.8817 10.6005 4.11612 10.3661C4.35054 10.1317 4.66848 10 5 10H8.75V7.5C8.75 5.8424 9.40848 4.25269 10.5806 3.08058C11.7527 1.90848 13.3424 1.25 15 1.25ZM21.25 13.75H18.75V15C18.7504 15.3186 18.8723 15.625 19.0911 15.8567C19.3098 16.0884 19.6087 16.2278 19.9267 16.2465C20.2448 16.2651 20.558 16.1617 20.8023 15.9572C21.0466 15.7527 21.2036 15.4626 21.2412 15.1462L21.25 15V13.75ZM11.25 13.75H8.75V15C8.75035 15.3186 8.87235 15.625 9.09106 15.8567C9.30977 16.0884 9.60869 16.2278 9.92674 16.2465C10.2448 16.2651 10.558 16.1617 10.8023 15.9572C11.0466 15.7527 11.2036 15.4626 11.2413 15.1462L11.25 15V13.75ZM15 3.75C14.0435 3.74995 13.1231 4.11541 12.4272 4.7716C11.7312 5.4278 11.3124 6.32513 11.2563 7.28L11.25 7.5V10H18.75V7.5C18.7501 6.54349 18.3846 5.62311 17.7284 4.92717C17.0722 4.23124 16.1749 3.81237 15.22 3.75625L15 3.75Z" fill="white"/>
</g>
<defs>
<clipPath id="clip0_43_80">
<rect width="30" height="30" fill="white"/>
</clipPath>
</defs>
</svg>
