<svg width="15" height="15" viewBox="0 0 15 15" fill="none" xmlns="http://www.w3.org/2000/svg">
<g clip-path="url(#clip0_28_25)">
<path d="M7.27903 3.34597L7.5 3.56694L7.72097 3.34597C8.30853 2.75842 9.25865 2.1875 10.3125 2.1875C12.0197 2.1875 13.4375 3.59053 13.4375 5.625C13.4375 7.69163 12.332 9.33382 10.9966 10.5929C9.81269 11.7092 8.47911 12.496 7.63897 12.9918C7.59099 13.0201 7.54463 13.0474 7.5 13.0738C7.45537 13.0474 7.40901 13.0201 7.36103 12.9918C6.52089 12.496 5.18731 11.7092 4.00344 10.5929C2.66801 9.33382 1.5625 7.69163 1.5625 5.625C1.5625 3.59197 3.00267 2.1875 4.6875 2.1875C5.74135 2.1875 6.69147 2.75842 7.27903 3.34597Z" stroke="#6C28FE" stroke-width="0.625"/>
</g>
<defs>
<clipPath id="clip0_28_25">
<rect width="15" height="15" fill="white"/>
</clipPath>
</defs>
</svg>
